<svg width="158" height="86" viewBox="0 0 158 86" fill="none" xmlns="http://www.w3.org/2000/svg">
<path d="M0 42.9886V35.625C3.95455 35.625 6.69318 34.8409 8.21591 33.2727C9.76136 31.7045 10.5341 29.2159 10.5341 25.8068V19.3636C10.5341 14.7955 11.2045 11.2045 12.5455 8.59091C13.9091 5.97728 15.7614 4.05682 18.1023 2.82955C20.4659 1.60227 23.1932 0.829548 26.2841 0.511368C29.375 0.170456 32.6591 0 36.1364 0V12.2386C33.4091 12.2386 31.3636 12.5682 30 13.2273C28.6591 13.8864 27.7614 14.8864 27.3068 16.2273C26.8523 17.5682 26.625 19.2614 26.625 21.3068V30.0341C26.625 31.7614 26.2727 33.4205 25.5682 35.0114C24.8636 36.6023 23.5682 38.0227 21.6818 39.2727C19.7955 40.5227 17.1023 41.5114 13.6023 42.2386C10.125 42.9659 5.59091 42.9886 0 42.9886ZM36.1364 85.9432C32.6591 85.9432 29.375 85.7727 26.2841 85.4318C23.1932 85.1136 20.4659 84.3409 18.1023 83.1136C15.7614 81.8864 13.9091 79.9659 12.5455 77.3523C11.2045 74.7386 10.5341 71.1477 10.5341 66.5796V60.1705C10.5341 56.7386 9.76136 54.25 8.21591 52.7046C6.69318 51.1364 3.95455 50.3523 0 50.3523V42.9886C5.59091 42.9886 10.125 42.9886 13.6023 43.7386C17.1023 44.4659 19.7955 45.4545 21.6818 46.7045C23.5682 47.9318 24.8636 49.3409 25.5682 50.9318C26.2727 52.5227 26.625 54.1818 26.625 55.9091V64.6364C26.625 66.6818 26.8523 68.375 27.3068 69.7159C27.7614 71.0568 28.6591 72.0568 30 72.7159C31.3636 73.375 33.4091 73.7046 36.1364 73.7046V85.9432Z" fill="#1A56DB"/>
<path d="M157.526 43V50.3523C153.594 50.3523 150.855 51.1364 149.31 52.7046C147.764 54.25 146.991 56.7386 146.991 60.1705V66.5796C146.991 71.1477 146.31 74.7386 144.946 77.3523C143.605 79.9659 141.753 81.8864 139.389 83.1136C137.048 84.3409 134.332 85.1136 131.241 85.4318C128.173 85.7727 124.889 85.9432 121.389 85.9432V73.7046C124.116 73.7046 126.151 73.375 127.491 72.7159C128.855 72.0568 129.764 71.0568 130.219 69.7159C130.673 68.375 130.901 66.6818 130.901 64.6364V55.9091C130.901 54.1818 131.253 52.5227 131.957 50.9318C132.662 49.3409 133.957 47.9318 135.844 46.7045C137.73 45.4545 140.412 44.4659 143.889 43.7386C147.389 42.9886 151.935 43 157.526 43ZM121.389 0C124.889 0 128.173 0.170456 131.241 0.511368C134.332 0.829548 137.048 1.60227 139.389 2.82955C141.753 4.05682 143.605 5.97728 144.946 8.59091C146.31 11.2045 146.991 14.7955 146.991 19.3636V25.8068C146.991 29.2159 147.764 31.7045 149.31 33.2727C150.855 34.8409 153.594 35.625 157.526 35.625V43C151.935 43 147.389 42.9659 143.889 42.2386C140.412 41.5114 137.73 40.5227 135.844 39.2727C133.957 38.0227 132.662 36.6023 131.957 35.0114C131.253 33.4205 130.901 31.7614 130.901 30.0341V21.3068C130.901 19.2614 130.673 17.5682 130.219 16.2273C129.764 14.8864 128.855 13.8864 127.491 13.2273C126.151 12.5682 124.116 12.2386 121.389 12.2386V0Z" fill="#1A56DB"/>
<path d="M47.7699 85.9432V0H76.9176V12.2386H63.929V73.7046H76.9176V85.9432H47.7699Z" fill="white"/>
<path d="M109.756 0V85.9432H80.608V73.7046H93.5966V12.2386H80.608V0H109.756Z" fill="white"/>
<path d="M14 40H0V45H14V40Z" fill="#1A56DB"/>
<path d="M157 40H143V45H157V40Z" fill="#1A56DB"/>
</svg>
